<?xml version="1.0" encoding="UTF-8"?>
<svg version="1.1" xmlns="http://www.w3.org/2000/svg" width="1536" height="1024">
<path d="M0 0 C506.88 0 1013.76 0 1536 0 C1536 337.92 1536 675.84 1536 1024 C1029.12 1024 522.24 1024 0 1024 C0 686.08 0 348.16 0 0 Z " fill="#F5F5F5" transform="translate(0,0)"/>
<path d="M0 0 C8.43922144 5.50442809 12.95950152 13.96096851 15.16162109 23.68115234 C15.55325106 26.15871629 15.85545557 28.6311943 16.125 31.125 C16.2960022 32.55646362 16.2960022 32.55646362 16.47045898 34.0168457 C16.87304391 37.44693313 17.25011784 40.87927482 17.625 44.3125 C17.78631378 45.76403158 17.94795051 47.2155273 18.10986328 48.66699219 C21.62652306 80.25341633 21.62652306 80.25341633 22.94165039 95.02807617 C23.32231188 99.08700696 23.90130588 103.07483745 24.58984375 107.09375 C25.62199468 113.12775365 26.38293113 119.1673094 27.0625 125.25 C27.18810303 126.35029541 27.31370605 127.45059082 27.44311523 128.58422852 C28.13832149 134.73997958 28.7924569 140.8988872 29.4140625 147.0625 C29.54369385 148.34519775 29.6733252 149.62789551 29.80688477 150.94946289 C30.05399891 153.41695863 30.29692022 155.8848792 30.53491211 158.35327148 C31.16076911 164.63982519 31.98314594 170.7987854 33.23803711 176.99243164 C33.625 179.3125 33.625 179.3125 33.625 183.3125 C14.155 183.3125 -5.315 183.3125 -25.375 183.3125 C-26.591875 175.701875 -27.80875 168.09125 -29.0625 160.25 C-33.45016246 132.80496622 -33.45016246 132.80496622 -37.87988281 105.36669922 C-38.2008502 103.38676725 -38.52058811 101.40663543 -38.83886719 99.42626953 C-39.2435419 96.90864717 -39.65231339 94.39172921 -40.0625 91.875 C-40.37767578 89.92787109 -40.37767578 89.92787109 -40.69921875 87.94140625 C-41.33893366 84.26530028 -41.33893366 84.26530028 -42.3671875 80.51953125 C-43.88112765 74.65096683 -44.43837931 68.62970135 -45.14257812 62.62109375 C-46.07968569 55.19671669 -47.16254781 47.63117829 -51.375 41.3125 C-53.83466377 40.70068905 -53.83466377 40.70068905 -56.375 41.3125 C-58.08941916 43.13258315 -58.08941916 43.13258315 -59.3125 45.65234375 C-60.07046875 47.0288208 -60.07046875 47.0288208 -60.84375 48.43310547 C-61.3490625 49.38330566 -61.854375 50.33350586 -62.375 51.3125 C-63.35010957 53.02445267 -64.32924793 54.73411717 -65.3125 56.44140625 C-66.3348367 58.25175601 -67.35560594 60.06299163 -68.375 61.875 C-68.9326001 62.86387207 -69.4902002 63.85274414 -70.06469727 64.87158203 C-77.72490297 78.46671226 -85.33934924 92.08758738 -92.94921875 105.7109375 C-98.56461855 115.75970968 -104.19179719 125.80188527 -109.875 135.8125 C-110.34309082 136.64233398 -110.81118164 137.47216797 -111.29345703 138.32714844 C-121.60846717 156.42923358 -121.60846717 156.42923358 -129.375 160.3125 C-135.70453952 160.36942032 -140.47595458 159.54349377 -145.375 155.3125 C-150.52517144 150.16232856 -153.97971114 144.14498786 -157.640625 137.91015625 C-160.84329752 132.4788571 -164.2072684 127.15038792 -167.5625 121.8125 C-172.59938415 113.78431439 -177.58421328 105.72791484 -182.5 97.625 C-188.61397854 87.54781008 -194.78354317 77.50686144 -201.01513672 67.50195312 C-202.20643022 65.58390642 -203.38844791 63.66062426 -204.56640625 61.734375 C-207.47162616 57.04084478 -210.21621234 52.96719219 -214.375 49.3125 C-216.07030819 51.00780819 -215.5179261 53.15970565 -215.53321838 55.48194885 C-215.54790161 57.16263458 -215.54790161 57.16263458 -215.56288147 58.87727356 C-215.56863693 60.11732651 -215.5743924 61.35737946 -215.58032227 62.63500977 C-215.59022186 63.93238068 -215.60012146 65.22975159 -215.61032104 66.56643677 C-215.63743383 70.13442566 -215.65840875 73.70242787 -215.67832303 77.27046323 C-215.70014342 80.99543278 -215.72755135 84.720361 -215.75437927 88.44529724 C-215.80435971 95.50364364 -215.84927861 102.56201292 -215.89240164 109.62040418 C-215.94172839 117.65415906 -215.99666338 125.68787249 -216.05208123 133.7215873 C-216.16598339 150.25185474 -216.27206394 166.78216008 -216.375 183.3125 C-225.285 183.3125 -234.195 183.3125 -243.375 183.3125 C-243.37642502 181.28454285 -243.37785004 179.25658569 -243.37931824 177.16717529 C-243.39513158 158.03981461 -243.43851409 138.91265718 -243.50709057 119.78541183 C-243.54168637 109.9522938 -243.56708898 100.11931517 -243.57055664 90.28613281 C-243.57360407 81.71162921 -243.594199 73.13737423 -243.63552457 64.56296659 C-243.65678573 60.02634085 -243.66949077 55.49006794 -243.66115379 50.95339203 C-243.6535698 46.67519012 -243.66961121 42.39770054 -243.70306015 38.11962891 C-243.71124141 36.55728504 -243.71110537 34.99486962 -243.70159721 33.43253326 C-243.63934727 22.07060583 -245.28992357 12.62566782 -252.1875 3.3125 C-254.375 0.3125 -254.375 0.3125 -254.375 -3.6875 C-247.01015926 -3.76394863 -239.64542195 -3.81626661 -232.28027344 -3.85229492 C-229.77795589 -3.86732434 -227.27566443 -3.8877535 -224.7734375 -3.91381836 C-221.16399675 -3.95045878 -217.55490617 -3.96728546 -213.9453125 -3.98046875 C-212.83761505 -3.99595261 -211.7299176 -4.01143646 -210.58865356 -4.02738953 C-197.16054521 -4.03025908 -186.69375745 0.31975447 -176.625 9.1875 C-169.22214886 16.92526952 -164.44296605 26.66809717 -159.25878906 35.95263672 C-156.07920839 41.62363065 -152.81662929 47.24656762 -149.5625 52.875 C-148.92699219 53.9779541 -148.29148437 55.0809082 -147.63671875 56.21728516 C-143.36283497 63.63050232 -139.02243288 70.99568401 -134.58496094 78.31201172 C-131.98122701 82.61689384 -129.39944771 86.93501809 -126.8125 91.25 C-125.76960018 92.98832261 -124.72663743 94.72660746 -123.68359375 96.46484375 C-122.9140625 97.74739583 -122.14453125 99.02994792 -121.375 100.3125 C-119.45857602 100.17380522 -119.45857602 100.17380522 -117.375 99.3125 C-115.76515045 97.21439924 -115.76515045 97.21439924 -114.45703125 94.52734375 C-113.66582886 93.03098389 -113.66582886 93.03098389 -112.85864258 91.50439453 C-112.30716553 90.43044434 -111.75568848 89.35649414 -111.1875 88.25 C-110.02183197 86.03723406 -108.85516371 83.82499474 -107.6875 81.61328125 C-107.1203125 80.52998535 -106.553125 79.44668945 -105.96875 78.33056641 C-103.94239837 74.49328718 -101.83434875 70.7083036 -99.6875 66.9375 C-98.97238896 65.67463049 -98.25754477 64.41160983 -97.54296875 63.1484375 C-97.19024902 62.52549805 -96.8375293 61.90255859 -96.47412109 61.26074219 C-94.46717362 57.7033364 -92.48342799 54.13305701 -90.5 50.5625 C-89.8800415 49.44742065 -89.8800415 49.44742065 -89.24755859 48.30981445 C-87.02113677 44.29925229 -84.80902124 40.28135362 -82.61328125 36.25390625 C-80.32074689 32.049527 -78.01170956 27.85476082 -75.68457031 23.66943359 C-74.83369521 22.13804877 -73.98647711 20.60462424 -73.14355469 19.06884766 C-65.45592807 5.13780173 -58.0422253 -0.68251105 -42.50292969 -5.23608398 C-28.89784862 -8.12224678 -12.19510758 -6.59146463 0 0 Z " fill="#232222" transform="translate(1021.375,401.6875)"/>
<path d="M0 0 C1.07479111 -0.01245758 2.14958221 -0.02491516 3.25694275 -0.03775024 C4.39877518 -0.01933075 5.5406076 -0.00091125 6.71704102 0.01806641 C7.90894547 0.0170694 9.10084991 0.01607239 10.32887268 0.01504517 C12.84285163 0.01971426 15.35684098 0.03909868 17.87060547 0.07226562 C21.70503967 0.11943323 25.53668732 0.11338252 29.37133789 0.10009766 C31.81992208 0.11125339 34.26849461 0.12547454 36.71704102 0.14306641 C37.85684921 0.14124359 38.99665741 0.13942078 40.17100525 0.13754272 C46.65922378 0.25229048 51.96527008 0.77535696 57.28344727 4.74462891 C59.08691406 6.83740234 59.08691406 6.83740234 60.23266602 9.10400391 C60.68101807 9.95945801 61.12937012 10.81491211 61.59130859 11.69628906 C62.04658936 12.61974121 62.50187012 13.54319336 62.97094727 14.49462891 C64.00950189 16.4974965 65.04858227 18.50009155 66.08813477 20.50244141 C66.61503906 21.5365918 67.14194336 22.57074219 67.68481445 23.63623047 C70.23495505 28.59475065 72.9222062 33.47702576 75.59594727 38.36962891 C80.96654377 48.27500061 86.2901862 58.20546201 91.60449219 68.14111328 C94.78282607 74.08223189 97.96772215 80.01959263 101.17016602 85.94775391 C101.48624313 86.53319977 101.80232025 87.11864563 102.12797546 87.72183228 C103.62645046 90.4971947 105.1263393 93.2717722 106.62890625 96.04492188 C109.96532115 102.22235823 113.18745898 108.44313676 116.28344727 114.74462891 C115.33369019 114.46099487 115.33369019 114.46099487 114.36474609 114.17163086 C112.67522476 113.66748336 110.98529994 113.16468765 109.29516602 112.66259766 C107.331957 112.06421358 105.37556691 111.4428301 103.42797852 110.79541016 C87.66139086 105.63506517 71.32846496 102.91559263 54.78344727 102.18212891 C53.40672852 102.11735352 53.40672852 102.11735352 52.00219727 102.05126953 C49.76272665 101.94629435 47.52316634 101.84413643 45.28344727 101.74462891 C45.00114258 101.14521484 44.71883789 100.54580078 44.42797852 99.92822266 C40.5066519 91.84408011 36.12242011 84.05741046 31.67749023 76.25244141 C28.50149166 70.67315405 25.35018709 65.08196629 22.24438477 59.46337891 C21.74004158 58.55157616 21.74004158 58.55157616 21.22550964 57.62135315 C19.58336821 54.65115647 17.94442946 51.67926975 16.30908203 48.70532227 C14.65255535 45.70740428 12.97409859 42.72339552 11.28344727 39.74462891 C10.717146 38.70266357 10.717146 38.70266357 10.1394043 37.63964844 C9.1260604 35.79498481 9.1260604 35.79498481 7.28344727 33.74462891 C4.70491747 33.55920403 4.70491747 33.55920403 2.28344727 33.74462891 C-2.42228 43.13275817 -7.12575322 52.52201305 -11.82647038 61.91265202 C-14.01002854 66.27458321 -16.19431776 70.63614487 -18.38037109 74.99682617 C-20.49594286 79.21698366 -22.60947232 83.43815848 -24.72167778 87.66000175 C-25.52179996 89.25841985 -26.32261759 90.85649004 -27.12419319 92.45417976 C-32.15262626 102.47819116 -37.03372328 112.55430718 -41.71655273 122.74462891 C-40.44169006 122.59304825 -39.16682739 122.44146759 -37.85333252 122.28529358 C-36.77766714 122.1573974 -36.77766714 122.1573974 -35.68027115 122.02691746 C-33.57477541 121.72424813 -31.78043915 121.20196872 -29.82592773 120.36572266 C10.62570839 104.15951567 67.09948491 101.69092946 107.87329102 118.28369141 C108.99864258 118.76580078 110.12399414 119.24791016 111.28344727 119.74462891 C112.29536133 120.14423828 113.30727539 120.54384766 114.34985352 120.95556641 C124.15400188 125.20831199 127.48734394 134.7996463 132.34594727 143.86962891 C133.49141893 145.99742781 134.63726111 148.12502729 135.78344727 150.25244141 C136.65163086 151.86554199 136.65163086 151.86554199 137.53735352 153.51123047 C140.77214327 159.50138085 144.04695481 165.4697914 147.32470703 171.43652344 C155.28344727 185.97735695 155.28344727 185.97735695 155.28344727 188.74462891 C147.95530867 188.83751413 140.62729804 188.90848707 133.29868889 188.95187759 C129.89528409 188.97270837 126.49228352 189.00094149 123.08911133 189.04638672 C119.1721692 189.0983624 115.25538792 189.11761159 111.33813477 189.13525391 C109.5143782 189.16622162 109.5143782 189.16622162 107.65377808 189.19781494 C97.02825773 189.20062913 97.02825773 189.20062913 92.28344727 184.74462891 C90.83227539 183.01049805 90.83227539 183.01049805 89.81469727 181.21728516 C89.40993164 180.51877441 89.00516602 179.82026367 88.58813477 179.10058594 C88.15758789 178.32312012 87.72704102 177.5456543 87.28344727 176.74462891 C86.79102539 175.8807959 86.29860352 175.01696289 85.79125977 174.12695312 C84.10529383 171.15441013 82.44243985 168.16980427 80.78344727 165.18212891 C77.06076549 158.49881084 73.33430976 151.81855827 69.54907227 145.17041016 C68.95803711 144.13150635 68.36700195 143.09260254 67.75805664 142.0222168 C66.63162004 140.04473374 65.50281625 138.06859672 64.37133789 136.09399414 C63.86280273 135.20010986 63.35426758 134.30622559 62.83032227 133.38525391 C62.38527344 132.60698242 61.94022461 131.82871094 61.48168945 131.02685547 C60.23494529 128.65224983 59.23661297 126.24987164 58.28344727 123.74462891 C26.45581406 124.1984244 26.45581406 124.1984244 -4.71655273 129.74462891 C-5.67078125 130.01549316 -6.62500977 130.28635742 -7.6081543 130.56542969 C-29.29021547 136.90394931 -51.01146672 145.16374162 -62.98608398 165.56494141 C-63.55713867 166.61423828 -64.12819336 167.66353516 -64.71655273 168.74462891 C-65.09473145 169.43524414 -65.47291016 170.12585938 -65.86254883 170.83740234 C-70.82596286 179.54929103 -70.82596286 179.54929103 -74.71655273 188.74462891 C-83.95655273 188.74462891 -93.19655273 188.74462891 -102.71655273 188.74462891 C-101.1458804 184.0326119 -99.38755176 179.78983431 -97.18232727 175.38183594 C-96.82620477 174.66223757 -96.47008228 173.9426392 -96.10316819 173.20123482 C-94.91339642 170.79973246 -93.71796815 168.40109309 -92.52246094 166.00244141 C-91.66624405 164.27747003 -90.81033028 162.55234817 -89.95469666 160.8270874 C-87.14800355 155.17172827 -84.33284779 149.52060036 -81.51733398 143.86962891 C-80.54728558 141.92143404 -79.57729157 139.97321208 -78.6073513 138.02496338 C-74.05113021 128.87444782 -69.49107147 119.72585749 -64.926287 110.57961082 C-59.66085256 100.02918437 -54.40873639 89.47226639 -49.16780597 78.90964699 C-45.11270291 70.739115 -41.04533279 62.57476462 -36.96873158 54.41493797 C-34.53553861 49.5438531 -32.10769625 44.67027232 -29.69277382 39.7901001 C-27.42086474 35.19970224 -25.13381896 30.61717017 -22.83504677 26.04016876 C-21.995453 24.36197158 -21.16130149 22.68103857 -20.33311081 20.99718475 C-19.19870247 18.69287792 -18.04480774 16.39937892 -16.88569641 14.10742188 C-16.56504709 13.44418474 -16.24439777 12.78094761 -15.9140318 12.09761238 C-12.58954266 5.62735129 -7.7003372 -0.01034096 0 0 Z " fill="#232323" transform="translate(615.716552734375,396.25537109375)"/>
<path d="M0 0 C6.79517343 -0.07650946 13.59023441 -0.1287916 20.38574219 -0.16479492 C22.69405265 -0.17981541 25.00233488 -0.20023779 27.31054688 -0.22631836 C30.64199825 -0.26299885 33.97306995 -0.27979431 37.3046875 -0.29296875 C38.32488983 -0.30845261 39.34509216 -0.32393646 40.39620972 -0.33988953 C50.44901423 -0.34221329 60.5905955 1.73959632 68 9 C69.91796875 11.90625 69.91796875 11.90625 71.8125 15.3125 C72.15503815 15.92668289 72.49757629 16.54086578 72.85049438 17.17366028 C76.56820455 23.90571417 79.98627526 30.78578519 83.375 37.6875 C84.58800842 40.15130015 85.8040847 42.6135522 87.0234375 45.07421875 C87.33932327 45.71176086 87.65520905 46.34930298 87.98066711 47.00616455 C90.01293891 51.08404115 92.11190323 55.12071778 94.25395203 59.14189148 C99.30395433 68.62223722 104.11676103 78.20898054 108.87890625 87.8359375 C109.58859868 89.26832734 110.29839757 90.70066444 111.00830078 92.13294983 C113.93539252 98.0405465 116.86207482 103.94829567 119.77124023 109.86474609 C121.57639574 113.53510159 123.39174059 117.20026664 125.21348381 120.86241531 C125.8935997 122.2342026 126.570134 123.60777296 127.24261665 124.98331833 C134.20456855 139.43492448 134.20456855 139.43492448 144 152 C145.66617115 152.04063832 147.33388095 152.042721 149 152 C153.94660575 142.90068818 158.66724181 133.72566262 163.09765625 124.36328125 C166.94983614 116.26665285 170.84118777 108.19104034 174.7890625 100.140625 C175.26923325 99.16130508 175.74940399 98.18198517 176.24412537 97.17298889 C178.19426995 93.19815463 180.14634895 89.22427216 182.09863281 85.25048828 C187.48405192 74.28488873 192.84557919 63.31161711 198.03848267 52.25323486 C200.24948432 47.54995836 202.53080117 42.88826954 204.875 38.25 C208.26750375 31.51706763 211.55630712 24.73741779 214.8125 17.9375 C215.28091309 16.96135742 215.74932617 15.98521484 216.23193359 14.97949219 C216.90023193 13.58005371 216.90023193 13.58005371 217.58203125 12.15234375 C217.97624268 11.32726318 218.3704541 10.50218262 218.77661133 9.65209961 C220.24764395 6.46314983 221.61660065 3.22793182 223 0 C231.91 0 240.82 0 250 0 C248.07002556 5.78992331 246.25640218 10.92111505 243.52929688 16.26611328 C243.19539948 16.93273987 242.86150208 17.59936646 242.51748657 18.28619385 C241.42347949 20.46708512 240.32110475 22.64363055 239.21875 24.8203125 C238.44166919 26.36631047 237.66519189 27.91261192 236.88928223 29.459198 C234.84700976 33.52668721 232.79792697 37.59070378 230.74694824 41.65380859 C227.10468463 48.8720156 223.47389631 56.09600598 219.84375 63.3203125 C219.45160435 64.10028154 219.05945869 64.88025059 218.65542984 65.68385506 C213.18126048 76.57657433 207.82253566 87.51502038 202.60253906 98.53222656 C198.08838229 108.05082227 193.42016246 117.49536435 188.77587891 126.95092773 C187.13153884 130.29918541 185.48947432 133.64855194 183.84765625 136.99804688 C181.67573769 141.42770166 179.49540969 145.85307872 177.30957031 150.27587891 C175.309747 154.32473568 173.32996135 158.38203197 171.37555885 162.45291996 C169.94533144 165.42531769 168.49790461 168.38936133 167.0546875 171.35546875 C166.53568878 172.45047195 166.01669006 173.54547516 165.48196411 174.67366028 C160.34916004 185.1474222 160.34916004 185.1474222 155 188 C150.85293453 188.68242143 146.78897071 188.67713539 142.59375 188.62890625 C140.79665588 188.63252419 140.79665588 188.63252419 138.96325684 188.63621521 C136.43494348 188.63523746 133.90660853 188.62186143 131.37841797 188.59692383 C127.51325594 188.56261766 123.65038091 188.57627123 119.78515625 188.59570312 C117.32551112 188.58880447 114.86587188 188.57913193 112.40625 188.56640625 C111.25298218 188.57136612 110.09971436 188.57632599 108.91149902 188.58143616 C102.80254277 188.49196838 98.69883052 188.32379561 94 184 C90.89852852 180.41450374 88.68013678 176.77407009 86.5234375 172.55859375 C86.03975204 171.61821762 86.03975204 171.61821762 85.54629517 170.65884399 C84.48336672 168.58798958 83.42900355 166.51290936 82.375 164.4375 C81.62138616 162.96331077 80.86747385 161.48927408 80.11328125 160.01538086 C71.62701761 143.4016306 63.31249401 126.70113847 55 110 C51.98174367 103.93621346 48.96187599 97.87323699 45.9375 91.8125 C45.58020184 91.09640375 45.22290367 90.3803075 44.85477829 89.64251137 C40.26042006 80.44133008 35.60988439 71.27660211 30.72509766 62.2253418 C28.19933824 57.50303673 25.81319777 52.71343883 23.4375 47.9140625 C20.42435475 41.83755291 17.40314655 35.76508936 14.37579346 29.69564819 C13.4003855 27.73843743 12.42744759 25.7800125 11.45458984 23.8215332 C8.13450688 17.15654876 4.72580167 10.56562341 1.05322266 4.08520508 C0 2 0 2 0 0 Z " fill="#232322" transform="translate(296,397)"/>
<path d="M0 0 C17.49 0 34.98 0 53 0 C53 61.71 53 123.42 53 187 C35.51 187 18.02 187 0 187 C0 125.29 0 63.58 0 0 Z " fill="#202020" transform="translate(1086,398)"/>
</svg>
